<svg width="26" height="25" viewBox="0 0 26 25" fill="none"
    xmlns="http://www.w3.org/2000/svg">
    <path d="M3 24.5C2.3125 24.5 1.72417 24.2554 1.235 23.7663C0.745833 23.2771 0.500833 22.6883 0.5 22V7C0.5 6.3125 0.745 5.72417 1.235 5.235C1.725 4.74583 2.31333 4.50083 3 4.5H8L12.125 0.375C12.375 0.125 12.6667 0 13 0C13.3333 0 13.625 0.125 13.875 0.375L18 4.5H23C23.6875 4.5 24.2763 4.745 24.7663 5.235C25.2563 5.725 25.5008 6.31333 25.5 7V22C25.5 22.6875 25.2554 23.2763 24.7663 23.7663C24.2771 24.2563 23.6883 24.5008 23 24.5H3ZM12.0625 18.25L9.75 15.1562C9.625 14.9896 9.45833 14.9062 9.25 14.9062C9.04167 14.9062 8.875 14.9896 8.75 15.1562L6.25 18.5C6.08333 18.7083 6.0625 18.9271 6.1875 19.1562C6.3125 19.3854 6.5 19.5 6.75 19.5H19.25C19.5 19.5 19.6875 19.3854 19.8125 19.1562C19.9375 18.9271 19.9167 18.7083 19.75 18.5L16.3125 13.9062C16.1875 13.7396 16.0208 13.6562 15.8125 13.6562C15.6042 13.6562 15.4375 13.7396 15.3125 13.9062L12.0625 18.25ZM19.875 13.25C20.3958 13.25 20.8387 13.0679 21.2038 12.7038C21.5688 12.3396 21.7508 11.8967 21.75 11.375C21.7492 10.8533 21.5671 10.4108 21.2038 10.0475C20.8404 9.68417 20.3975 9.50167 19.875 9.5C19.3525 9.49833 18.91 9.68083 18.5475 10.0475C18.185 10.4142 18.0025 10.8567 18 11.375C17.9975 11.8933 18.18 12.3363 18.5475 12.7038C18.915 13.0712 19.3575 13.2533 19.875 13.25ZM10.625 4.5H15.375L13 2.125L10.625 4.5Z" fill="#333333"/>
</svg>
    