<svg width="20" height="26" viewBox="0 0 20 26" fill="none"
    xmlns="http://www.w3.org/2000/svg">
    <path d="M2.5 25.5C1.8125 25.5 1.22417 25.2554 0.735 24.7663C0.245833 24.2771 0.000833333 23.6883 0 23V8C0 7.3125 0.245 6.72417 0.735 6.235C1.225 5.74583 1.81333 5.50083 2.5 5.5H5C5 4.125 5.48958 2.94792 6.46875 1.96875C7.44792 0.989583 8.625 0.5 10 0.5C11.375 0.5 12.5521 0.989583 13.5312 1.96875C14.5104 2.94792 15 4.125 15 5.5H17.5C18.1875 5.5 18.7763 5.745 19.2663 6.235C19.7563 6.725 20.0008 7.31333 20 8V23C20 23.6875 19.7554 24.2763 19.2663 24.7663C18.7771 25.2563 18.1883 25.5008 17.5 25.5H2.5ZM2.5 23H17.5V8H15V10.5C15 10.8542 14.88 11.1513 14.64 11.3913C14.4 11.6313 14.1033 11.7508 13.75 11.75C13.3967 11.7492 13.1 11.6292 12.86 11.39C12.62 11.1508 12.5 10.8542 12.5 10.5V8H7.5V10.5C7.5 10.8542 7.38 11.1513 7.14 11.3913C6.9 11.6313 6.60333 11.7508 6.25 11.75C5.89667 11.7492 5.6 11.6292 5.36 11.39C5.12 11.1508 5 10.8542 5 10.5V8H2.5V23ZM7.5 5.5H12.5C12.5 4.8125 12.2554 4.22417 11.7663 3.735C11.2771 3.24583 10.6883 3.00083 10 3C9.31167 2.99917 8.72333 3.24417 8.235 3.735C7.74667 4.22583 7.50167 4.81417 7.5 5.5Z" fill="#333333"/>
</svg>
    