<svg width="26" height="26" viewBox="0 0 26 26" fill="none"
    xmlns="http://www.w3.org/2000/svg">
    <path d="M20.25 20.5C18.8625 20.5 17.75 21.6125 17.75 23C17.75 23.663 18.0134 24.2989 18.4822 24.7678C18.9511 25.2366 19.587 25.5 20.25 25.5C20.913 25.5 21.5489 25.2366 22.0178 24.7678C22.4866 24.2989 22.75 23.663 22.75 23C22.75 22.337 22.4866 21.7011 22.0178 21.2322C21.5489 20.7634 20.913 20.5 20.25 20.5ZM0.25 0.5V3H2.75L7.25 12.4875L5.55 15.55C5.3625 15.9 5.25 16.3125 5.25 16.75C5.25 17.413 5.51339 18.0489 5.98223 18.5178C6.45107 18.9866 7.08696 19.25 7.75 19.25H22.75V16.75H8.275C8.19212 16.75 8.11263 16.7171 8.05403 16.6585C7.99542 16.5999 7.9625 16.5204 7.9625 16.4375C7.9625 16.375 7.975 16.325 8 16.2875L9.125 14.25H18.4375C19.375 14.25 20.2 13.725 20.625 12.9625L25.1 4.875C25.1875 4.675 25.25 4.4625 25.25 4.25C25.25 3.91848 25.1183 3.60054 24.8839 3.36612C24.6495 3.1317 24.3315 3 24 3H5.5125L4.3375 0.5M7.75 20.5C6.3625 20.5 5.25 21.6125 5.25 23C5.25 23.663 5.51339 24.2989 5.98223 24.7678C6.45107 25.2366 7.08696 25.5 7.75 25.5C8.41304 25.5 9.04893 25.2366 9.51777 24.7678C9.98661 24.2989 10.25 23.663 10.25 23C10.25 22.337 9.98661 21.7011 9.51777 21.2322C9.04893 20.7634 8.41304 20.5 7.75 20.5Z" fill="#FFFEED"/>
</svg>
    