<svg width="28" height="28" viewBox="0 0 28 28" fill="none"
    xmlns="http://www.w3.org/2000/svg">
    <path d="M14 0.875C11.4041 0.875 8.86654 1.64477 6.70815 3.08696C4.54975 4.52916 2.86749 6.579 1.87409 8.97728C0.880687 11.3756 0.620768 14.0146 1.1272 16.5606C1.63363 19.1066 2.88367 21.4452 4.71923 23.2808C6.55479 25.1163 8.89345 26.3664 11.4394 26.8728C13.9854 27.3792 16.6244 27.1193 19.0227 26.1259C21.421 25.1325 23.4709 23.4503 24.913 21.2919C26.3552 19.1335 27.125 16.5959 27.125 14C27.125 10.519 25.7422 7.18064 23.2808 4.71922C20.8194 2.25781 17.481 0.875 14 0.875ZM20.9816 14.8391L9.73157 20.4641C9.5886 20.5355 9.42975 20.5692 9.27009 20.562C9.11043 20.5547 8.95527 20.5068 8.81935 20.4227C8.68343 20.3387 8.57126 20.2213 8.49349 20.0816C8.41572 19.942 8.37493 19.7848 8.37501 19.625V8.375C8.37509 8.21526 8.41599 8.05819 8.49383 7.91869C8.57167 7.7792 8.68385 7.6619 8.81975 7.57794C8.95565 7.49398 9.11075 7.44614 9.27032 7.43895C9.4299 7.43176 9.58867 7.46547 9.73157 7.53687L20.9816 13.1619C21.1371 13.2398 21.2678 13.3595 21.3592 13.5075C21.4506 13.6555 21.499 13.826 21.499 14C21.499 14.174 21.4506 14.3445 21.3592 14.4925C21.2678 14.6405 21.1371 14.7602 20.9816 14.8381" fill="#333333"/>
</svg>
    