<svg width="17" height="17" viewBox="0 0 17 17" fill="none"
    xmlns="http://www.w3.org/2000/svg">
    <path d="M16.3887 7.52415L13.0488 10.4061L14.0664 14.716C14.1225 14.9499 14.108 15.1953 14.0248 15.421C13.9416 15.6468 13.7933 15.8428 13.5987 15.9843C13.4042 16.1258 13.172 16.2065 12.9316 16.2162C12.6912 16.2258 12.4533 16.164 12.248 16.0385L8.49995 13.7318L4.74968 16.0385C4.54441 16.1633 4.30682 16.2245 4.06682 16.2145C3.82682 16.2045 3.59515 16.1237 3.40098 15.9823C3.2068 15.8409 3.05881 15.6452 2.97563 15.4199C2.89246 15.1945 2.87781 14.9496 2.93355 14.716L3.9548 10.4061L0.614954 7.52415C0.433339 7.36719 0.301992 7.1602 0.237316 6.92903C0.17264 6.69786 0.177501 6.45276 0.251293 6.22434C0.325085 5.99592 0.464537 5.7943 0.652233 5.64466C0.839929 5.49502 1.06755 5.40399 1.30667 5.38294L5.68558 5.02966L7.3748 0.941694C7.46623 0.718902 7.62185 0.528331 7.82187 0.39421C8.02189 0.260089 8.25727 0.188477 8.4981 0.188477C8.73892 0.188477 8.97431 0.260089 9.17433 0.39421C9.37435 0.528331 9.52997 0.718902 9.6214 0.941694L11.3099 5.02966L15.6888 5.38294C15.9284 5.40321 16.1567 5.49373 16.345 5.64316C16.5334 5.79259 16.6735 5.99429 16.7478 6.22299C16.822 6.45169 16.8271 6.69722 16.7625 6.92881C16.6978 7.1604 16.5662 7.36775 16.3842 7.5249L16.3887 7.52415Z" fill="#FFFEED"/>
</svg>
    