<svg width="25" height="25" viewBox="0 0 25 25" fill="none"
    xmlns="http://www.w3.org/2000/svg">
    <path fill-rule="evenodd" clip-rule="evenodd" d="M7.40877 0.321194C8.97117 -0.0813557 10.6144 -0.0441439 12.157 0.428718C13.6996 0.901581 15.0814 1.79168 16.1498 3.00068C17.2182 4.20968 17.9316 5.6905 18.2111 7.27952C18.4906 8.86855 18.3254 10.5039 17.7338 12.0049L23.4825 16.8712C23.9185 17.2396 24.2733 17.6946 24.5244 18.2072C24.7755 18.7198 24.9175 19.279 24.9414 19.8493C24.9652 20.4197 24.8705 20.9887 24.6631 21.5206C24.4557 22.0524 24.1402 22.5354 23.7365 22.9389C23.3328 23.3425 22.8497 23.658 22.3179 23.8652C21.786 24.0725 21.2169 24.1672 20.6466 24.1432C20.0763 24.1192 19.5171 23.9771 19.0046 23.7259C18.492 23.4746 18.0371 23.1198 17.6688 22.6837L12.805 16.9374C11.3038 17.5301 9.66796 17.696 8.07832 17.417C6.48868 17.1379 5.00718 16.4246 3.79762 15.3561C2.58806 14.2875 1.69756 12.9053 1.22457 11.3622C0.751583 9.81911 0.714532 8.17527 1.11752 6.61244C1.17434 6.39285 1.28927 6.19262 1.45023 6.03281C1.61119 5.87299 1.81223 5.75949 2.03222 5.70423C2.25221 5.64898 2.48303 5.65401 2.7004 5.71881C2.91778 5.7836 3.11368 5.90576 3.26752 6.07244L7.07377 10.2062L9.94502 9.14994L11.0038 6.27494L6.86752 2.47494C6.69984 2.32116 6.57683 2.12491 6.51151 1.90696C6.44619 1.68902 6.44098 1.45747 6.49644 1.2368C6.55189 1.01614 6.66595 0.814564 6.82654 0.653391C6.98714 0.492218 7.1883 0.37744 7.40877 0.321194Z" fill="#333333"/>
</svg>
    