<svg width="51" height="44" viewBox="0 0 51 44" fill="none"
    xmlns="http://www.w3.org/2000/svg">
    <path fill-rule="evenodd" clip-rule="evenodd" d="M45.4425 1.075C46.0603 0.814982 46.7365 0.725302 47.4007 0.815297C48.0649 0.905293 48.6929 1.17168 49.2192 1.58672C49.7455 2.00176 50.151 2.55029 50.3934 3.17521C50.6358 3.80013 50.7063 4.47861 50.5975 5.14001L44.9275 39.5325C44.3775 42.85 40.7375 44.7525 37.695 43.1C35.15 41.7175 31.37 39.5875 27.97 37.365C26.27 36.2525 21.0625 32.69 21.7025 30.155C22.2525 27.9875 31.0025 19.8425 36.0025 15C37.965 13.0975 37.07 12 34.7525 13.75C28.9975 18.095 19.7575 24.7025 16.7025 26.5625C14.0075 28.2025 12.6025 28.4825 10.9225 28.2025C7.85749 27.6925 5.01499 26.9025 2.69499 25.94C-0.440012 24.64 -0.287512 20.33 2.69249 19.075L45.4425 1.075Z" fill="#E4D9FF"/>
</svg>
    