<svg width="46" height="46" viewBox="0 0 46 46" fill="none"
    xmlns="http://www.w3.org/2000/svg">
    <path fill-rule="evenodd" clip-rule="evenodd" d="M10.5 0.5C7.84784 0.5 5.3043 1.55357 3.42893 3.42893C1.55357 5.3043 0.5 7.84784 0.5 10.5V35.5C0.5 38.1522 1.55357 40.6957 3.42893 42.5711C5.3043 44.4464 7.84784 45.5 10.5 45.5H35.5C38.1522 45.5 40.6957 44.4464 42.5711 42.5711C44.4464 40.6957 45.5 38.1522 45.5 35.5V10.5C45.5 7.84784 44.4464 5.3043 42.5711 3.42893C40.6957 1.55357 38.1522 0.5 35.5 0.5H10.5ZM36.33 18.1375C36.698 17.5858 36.8318 16.9106 36.7019 16.2603C36.572 15.61 36.1892 15.038 35.6375 14.67C35.0858 14.302 34.4106 14.1682 33.7603 14.2981C33.11 14.428 32.538 14.8108 32.17 15.3625C31.285 16.5375 30.3575 17.6625 29.2725 18.6625C28.015 19.8225 26.7425 20.6925 25.5025 21.2075L25.4825 16.4575C25.4109 15.8494 25.1185 15.2887 24.6609 14.8818C24.2033 14.4749 23.6123 14.2501 23 14.25C21.645 14.3275 20.5 15.3275 20.5 16.75V27.6825C15.63 26.3325 13 21.6075 13 16.75C13 16.087 12.7366 15.4511 12.2678 14.9822C11.7989 14.5134 11.163 14.25 10.5 14.25C9.83696 14.25 9.20107 14.5134 8.73223 14.9822C8.26339 15.4511 8 16.087 8 16.75C8 25.83 14.275 33 23 33C23.663 33 24.2989 32.7366 24.7678 32.2678C25.2366 31.7989 25.5 31.163 25.5 30.5V26.5925C28.83 26.8575 32.06 29.21 33.265 31.6175C33.4054 31.9214 33.6054 32.1941 33.8532 32.4193C34.101 32.6444 34.3915 32.8175 34.7074 32.9283C35.0234 33.0391 35.3584 33.0853 35.6925 33.0641C36.0266 33.043 36.3531 32.9549 36.6526 32.8052C36.952 32.6554 37.2184 32.4471 37.4358 32.1925C37.6532 31.9378 37.8172 31.6422 37.9182 31.3229C38.0191 31.0037 38.055 30.6674 38.0235 30.3341C37.992 30.0008 37.8939 29.6772 37.735 29.3825C36.54 26.99 34.31 24.7525 31.565 23.2925C31.935 22.9892 32.3017 22.6708 32.665 22.3375C34.0425 21.0815 35.2721 19.6724 36.33 18.1375Z" fill="#E4D9FF"/>
</svg>
    