<svg width="50" height="50" viewBox="0 0 50 50" fill="none"
    xmlns="http://www.w3.org/2000/svg">
    <path d="M25 0C38.8075 0 50 11.1925 50 25C50 38.8075 38.8075 50 25 50C20.7449 50.006 16.5593 48.9215 12.8425 46.85L12.08 46.405L4.50002 48.635C4.08753 48.7566 3.65082 48.7707 3.23131 48.6762C2.81179 48.5817 2.42337 48.3816 2.10286 48.0949C1.78235 47.8082 1.54038 47.4444 1.39988 47.0379C1.25938 46.6315 1.225 46.1959 1.30002 45.7725L1.36502 45.5L3.59502 37.92C1.23765 34.0232 -0.0057811 29.5544 2.02071e-05 25C2.02071e-05 11.1925 11.1925 0 25 0ZM25 5C21.4191 4.99935 17.9037 5.96014 14.8208 7.78204C11.738 9.60393 9.20091 12.2201 7.47443 15.3574C5.74794 18.4946 4.89543 22.0378 5.00592 25.6171C5.1164 29.1963 6.18583 32.6802 8.10252 35.705C8.59752 36.485 8.81002 37.445 8.64252 38.3975L8.54502 38.805L7.44252 42.5575L11.195 41.455C12.2775 41.135 13.4025 41.33 14.295 41.8975C16.9158 43.557 19.8867 44.5841 22.9729 44.8976C26.059 45.2111 29.1758 44.8025 32.0768 43.704C34.9778 42.6055 37.5835 40.8472 39.688 38.5682C41.7924 36.2892 43.3379 33.5519 44.2022 30.5728C45.0666 27.5936 45.2261 24.4542 44.6681 21.4028C44.1102 18.3513 42.8501 15.4715 40.9875 12.9909C39.1249 10.5104 36.7108 8.49708 33.9361 7.1102C31.1613 5.72333 28.102 5.00089 25 5ZM17.755 12.96C18.0321 12.8414 18.3351 12.7963 18.6346 12.8291C18.9342 12.862 19.2203 12.9716 19.465 13.1475C20.725 14.0675 21.725 15.3025 22.585 16.5075L23.4025 17.6925L23.785 18.255C24.0065 18.5774 24.1153 18.9639 24.0945 19.3545C24.0738 19.7451 23.9245 20.1179 23.67 20.415L23.4825 20.605L21.1725 22.32C21.0626 22.4015 20.9854 22.5195 20.9547 22.6529C20.924 22.7862 20.9418 22.9261 21.005 23.0475C21.53 23.9975 22.4575 25.415 23.5225 26.48C24.59 27.545 26.0725 28.535 27.0875 29.1175C27.3075 29.2425 27.5725 29.2025 27.7525 29.04L27.8475 28.9275L29.35 26.64C29.6254 26.272 30.0329 26.0252 30.4865 25.9516C30.9402 25.8779 31.4048 25.9831 31.7825 26.245L33.14 27.1925C34.49 28.155 35.7875 29.19 36.815 30.5025C37.0051 30.7492 37.126 31.0421 37.1651 31.351C37.2042 31.66 37.1602 31.9738 37.0375 32.26C36.0475 34.57 33.54 36.5375 30.935 36.4425L30.5375 36.4175L30.06 36.3725L29.79 36.3375L29.195 36.2375C26.885 35.8025 23.1825 34.4925 19.345 30.6575C15.51 26.82 14.2 23.1175 13.765 20.8075L13.665 20.2125L13.6025 19.6925L13.57 19.255L13.56 19.0675C13.465 16.4575 15.4425 13.95 17.755 12.96Z" fill="#E4D9FF"/>
</svg>
    